<?xml version="1.0" encoding="utf-8"?>
<!-- Generator: Adobe Illustrator 27.5.0, SVG Export Plug-In . SVG Version: 6.00 Build 0)  -->
<svg version="1.1" xmlns="http://www.w3.org/2000/svg" xmlns:xlink="http://www.w3.org/1999/xlink" x="0px" y="0px"
	 viewBox="0 0 750 500" style="enable-background:new 0 0 750 500;" xml:space="preserve">
<g id="BACKGROUND">
</g>
<g id="Capa_1">
	<g>
		<path style="fill:#030303;" d="M313.136,242.574c-1.629-0.163-3.258-0.325-5.024-0.501c-0.787,1.376-1.559,2.819-2.418,4.209
			c-2.985,4.834-5.926,9.697-9.021,14.459c-3.843,5.912-7.749,11.787-11.766,17.582c-3.744,5.402-7.662,10.685-11.52,16.008
			c-1.408,1.942-2.983,3.772-4.276,5.785c-3.612,5.625-13.932,7.758-20.416,1.089c-2.138-2.199-3.524-4.847-4.862-7.539
			c-1.362-2.74-1.964-5.701-2.126-8.712c-0.087-1.615,0.184-3.281,0.513-4.879c1.262-6.146,3.592-11.925,6.328-17.54
			c4.235-8.694,9.058-17.065,14.457-25.08c1.463-2.173,3.534-4.003,5.561-5.711c2.142-1.805,5.175-1.394,6.994,0.682
			c0.32,0.365,0.487,1.019,0.449,1.518c-0.147,1.905-0.28,3.826-0.647,5.696c-1.498,7.641-4.42,14.811-7.327,21.992
			c-1.901,4.697-3.674,9.449-5.395,14.216c-2.056,5.694-2.972,11.672-4.176,17.576c-0.049,0.238-0.006,0.496-0.006,1.065
			c4.312-3.612,8.431-7.015,11.554-11.393c3.42-4.794,6.668-9.711,10.005-14.565c0.931-1.355,1.959-2.644,2.858-4.019
			c1.573-2.405,3.013-4.898,4.631-7.271c2.354-3.452,4.866-6.796,7.214-10.252c1.801-2.65,3.451-5.402,5.235-8.214
			c-2.19-1.521-10.661-2.691-10.362-11.773c0.153-1.292,0.29-2.589,0.507-3.871c1.381-8.169,9.248-15.56,17.211-16.202
			c2.269-0.183,4.362,0.3,6.219,1.637c0.35,0.252,0.592,0.652,1.124,1.257c-2.478,0.036-3.41,1.645-4.312,3.206
			c-2.857,4.948-6.147,10.612-4.883,16.39c0.292,1.333,2.819,5.426,3.049,6.221c3.525,0.205,6.796,0.395,10.222,0.594
			c0.444-0.593,0.934-1.329,1.504-1.996c3.282-3.844,7.445-6.011,12.5-6.247c5.812-0.272,11.63-0.405,17.683-0.606
			c1.471-2.97,3-6.249,4.7-9.436c1.932-3.622,3.969-7.19,6.056-10.726c1.018-1.724,2.433-3.143,4.166-4.196
			c1.74-1.057,4.405-0.611,5.539,1.046c0.347,0.507,0.427,1.32,0.357,1.963c-0.171,1.562-0.374,3.142-0.791,4.652
			c-1.769,6.403-3.621,12.782-5.44,19.171c-0.109,0.383-0.199,0.771-0.344,1.335c4.379,0.544,8.621,1.071,13.022,1.618
			c0.285-0.813,0.577-1.564,0.814-2.332c1.922-6.236,4.385-12.251,7.349-18.061c3.992-7.824,9.71-14.24,16.434-19.781
			c3.16-2.604,6.845-4.35,10.854-5.163c2.895-0.587,5.866-0.536,8.72,0.486c0.901,0.323,1.778,0.714,2.655,1.098
			c6.873,3.011,8.619,9.605,7.297,15.493c-1.418,6.32-4.18,12.01-8.027,17.193c-3.531,4.756-7.58,9.015-12.149,12.793
			c-3.504,2.897-7.449,4.858-11.886,5.784c-1.146,0.239-1.782,0.647-2.026,1.888c-0.952,4.839-2.07,9.646-3,14.488
			c-0.267,1.393-0.181,2.869-0.121,4.302c0.028,0.669,0.378,1.325,0.763,1.971c1.391-3.175,3.127-6.022,5.215-8.628
			c4.065-5.076,9.05-8.671,15.678-9.687c6.647-1.019,12.951,3.006,14.243,10.21c0.713,3.977,0.575,7.938-0.784,11.769
			c-2.358,6.648-4.749,13.286-7.225,19.89c-2.121,5.655-4.107,11.34-5.087,17.323c-0.386,2.356-0.663,4.726-0.479,7.372
			c0.58-0.266,1.077-0.351,1.354-0.644c1.5-1.589,3.195-3.071,4.355-4.888c1.946-3.05,3.572-6.309,5.251-9.523
			c0.277-0.531,0.326-1.333,0.16-1.919c-1.096-3.88-0.98-7.787,0.12-11.571c2.378-8.18,5.308-16.14,10.667-22.956
			c2.625-3.339,5.107-6.796,7.844-10.041c3.444-4.084,7.558-7.278,12.68-9.157c5.292-1.941,10.216-1.119,15.046,1.359
			c0.537,0.275,1.041,0.613,1.69,0.998c0.295-0.622,0.576-1.146,0.799-1.693c4.559-11.193,10.051-21.916,16.423-32.177
			c1.766-2.844,3.809-5.531,5.887-8.162c2.003-2.534,4.621-2.612,6.898-0.374c0.287,0.282,0.475,0.86,0.419,1.259
			c-0.143,1.009-0.335,2.041-0.712,2.982c-2.703,6.738-5.423,13.469-8.201,20.176c-6.691,16.155-12.435,32.648-17.602,49.343
			c-2.275,7.352-3.36,14.956-4.417,22.974c0.575-0.545,0.923-0.793,1.164-1.12c0.609-0.828,1.173-1.688,1.747-2.54
			c3.178-4.716,6.359-9.43,9.525-14.155c0.532-0.794,1.102-1.59,1.469-2.463c2.72-6.471,6.332-12.457,10.077-18.355
			c2.989-4.706,6.448-9.081,11.112-12.263c1.845-1.258,3.937-2.187,5.993-3.093c1.622-0.715,3.377-1.12,5.044-1.742
			c2.952-1.102,5.936-1.028,8.886-0.169c3.482,1.013,5.431,3.718,6.392,6.95c1.622,5.459,0.699,10.713-2.116,15.642
			c-0.594,1.04-1.422,1.935-1.003,3.374c0.178,0.608-0.325,1.434-0.569,2.144c-2.041,5.964-4.273,11.885-5.139,18.165
			c-0.392,2.839-0.503,5.737-0.467,8.604c0.019,1.524,0.625,3.04,1.009,4.752c0.694-0.287,1.19-0.365,1.508-0.646
			c1.585-1.399,3.413-2.644,4.619-4.327c2.507-3.501,4.685-7.239,6.971-10.897c0.246-0.393,0.405-0.889,0.449-1.352
			c0.596-6.287,2.691-12.164,5.101-17.915c1.744-4.161,3.775-8.21,5.833-12.23c1.886-3.685,4.495-6.879,7.371-9.842
			c2.071-2.133,3.874-2.361,6.436-0.875c0.821,0.476,1.609,1.009,2.45,1.54c0.278,2.102-0.382,4.058-0.945,6.027
			c-1.941,6.782-3.993,13.535-5.794,20.354c-1.437,5.439-2.163,11.021-2.588,16.635c-0.028,0.373-0.004,0.75-0.004,1.604
			c0.786-0.833,1.353-1.303,1.76-1.886c2.155-3.086,4.435-6.101,6.369-9.322c5.713-9.514,11.312-19.097,16.872-28.701
			c0.661-1.142,0.863-2.568,1.181-3.885c0.568-2.346,1.319-3.043,3.588-2.319c3.212,1.025,6.088,2.402,6.942,6.374
			c1.498,6.964,2.148,13.96,1.596,21.036c-0.462,5.928-1.214,11.834-1.849,17.86c0.124-0.023,0.4,0.006,0.567-0.115
			c5.429-3.956,10.858-7.892,15.367-12.964c5.503-6.191,8.607-13.455,9.992-21.514c0.451-2.625,0.569-5.306,0.904-7.953
			c0.086-0.681,0.418-1.331,0.696-2.175c2.867,1.385,4.817,3.052,5.306,6.11c2.041,12.771-0.651,24.14-9.988,33.472
			c-2.612,2.611-5.43,5.036-8.306,7.358c-5.546,4.478-11.179,8.85-16.827,13.199c-1.152,0.887-1.865,1.873-2.212,3.292
			c-2.463,10.069-5.762,19.87-9.99,29.328c-1.783,3.989-3.813,7.924-6.209,11.57c-4.84,7.366-11.752,11.712-20.564,12.894
			c-4.596,0.616-8.676-0.486-12.269-3.468c-0.929-0.771-2.01-1.407-3.11-1.911c-1.65-0.756-2.673-1.976-2.899-3.713
			c-0.626-4.818-0.519-9.566,1.702-14.057c2.748-5.556,6.558-10.308,11.283-14.249c3.359-2.802,7.013-5.253,10.562-7.825
			c3.55-2.573,7.127-5.109,10.705-7.642c0.875-0.62,1.425-1.377,1.716-2.442c1.354-4.954,2.781-9.887,4.181-14.825
			c0.037-0.211,0.075-0.426,0.112-0.64c1.681-4.873,2.408-8.51,1.76-9.691c-0.374,0.758-0.709,1.384-0.997,2.031
			c-1.869,4.193-3.744,8.392-6.492,12.1c-1.339,1.807-2.865,3.482-4.377,5.153c-3.833,4.233-11.84,4.714-16.372,1.029
			c-0.637-0.518-1.245-1.08-1.921-1.541c-0.657-0.448-1.385-0.793-2.135-1.213c-0.615,0.882-1.103,1.618-1.626,2.327
			c-4.944,6.695-14.292,8.139-21.019,3.269c-0.827-0.599-1.762-1.052-2.565-1.679c-1.22-0.954-2.369-2-3.689-3.128
			c-0.312,0.239-0.841,0.644-1.37,1.049c-5.807,4.434-14.173,4.906-20.075,1.183c-1.922-1.212-3.309-2.822-4.225-4.889
			c-0.338-0.763-0.816-1.464-1.439-2.56c-0.668,1.573-1.067,2.728-1.632,3.795c-1.054,1.992-2.101,4.002-3.34,5.879
			c-2.062,3.125-5.091,4.633-8.809,4.908c-3.373,0.25-6.534-0.137-9.347-2.258c-2.047-1.543-3.165-3.516-3.411-6.046
			c-0.121-1.247-0.344-2.484-0.521-3.725c-0.151-0.024-0.302-0.048-0.452-0.071c-0.286,0.411-0.583,0.814-0.856,1.234
			c-1.191,1.835-2.307,3.723-3.576,5.502c-2.216,3.109-5.361,4.585-9.114,4.822c-1.365,0.086-2.738,0.07-4.107,0.07
			c-3.207,0-6.023-1.111-8.54-3.051c-0.478-0.369-0.95-0.745-1.424-1.116c-1.072,2.824-2.098,5.527-3.124,8.23
			c-0.171,0.209-0.356,0.409-0.511,0.629c-5.522,7.812-16.041,9.011-23.144,2.636c-0.303-0.419-0.606-0.838-0.908-1.257
			c-0.459-0.899-0.918-1.798-1.377-2.697c-0.319-1.041-0.556-2.117-0.973-3.118c-1.611-3.871-1.5-7.849-0.932-11.891
			c0.893-6.357,3.298-12.251,5.423-18.24c2.628-7.408,5.174-14.846,7.664-22.301c0.444-1.329,0.444-2.806,0.649-4.215
			c-0.11-0.129-0.22-0.258-0.329-0.387c-0.749,0.245-1.587,0.349-2.23,0.76c-2.389,1.528-4.291,3.582-5.987,5.841
			c-4.368,5.815-7.357,12.317-9.372,19.257c-1.064,3.664-1.791,7.427-2.645,11.151c-0.088,0.384-0.002,0.807,0.004,1.212
			c-0.031,0.558-0.061,1.116-0.092,1.674c-0.009,3.425-0.018,6.851-0.027,10.276c0.036,0.286,0.072,0.571,0.108,0.857
			c0.096,1.135,0.191,2.269,0.311,3.692c-2.331,0.432-4.711,0.871-7.09,1.315c-0.458,0.086-0.913,0.19-1.369,0.285
			c-0.96,0.02-1.92,0.04-2.88,0.06c-1.815-0.233-3.638-0.417-5.443-0.711c-2.397-0.391-4.178-1.942-5.936-3.441
			c-0.431-0.368-0.629-1.174-0.678-1.799c-0.469-5.916-1.431-11.799-1.248-17.762c0.006-0.195-0.093-0.393-0.143-0.59
			c-0.023-0.421-0.047-0.841-0.07-1.262c-0.027-0.816-0.055-1.631-0.083-2.447c0-0.725,0-1.451,0-2.177
			c-0.145-0.012-0.29-0.024-0.435-0.035c-0.333,0.712-0.666,1.425-0.999,2.137c-2.236,4-4.394,8.047-6.732,11.987
			c-2.13,3.588-4.361,7.125-6.727,10.561c-1.687,2.449-3.797,4.597-6.888,5.202c-5.851,1.145-11.467,0.993-16.182-3.41
			c-0.537-0.501-1.198-0.982-1.887-1.185c-2.002-0.592-3.051-1.96-3.585-3.871c-0.145-0.519-0.383-1.012-0.578-1.516
			c-0.078-0.351-0.156-0.702-0.316-1.419c-0.429,0.691-0.657,1.058-0.885,1.425c-0.785,1.028-1.574,2.053-2.356,3.084
			c-2.338,3.079-5.099,5.696-8.309,7.868c-4.59,3.105-14.454,3.698-19.631-3.257c-2.718-3.651-4.796-7.621-5.684-12.149
			c-0.539-2.747-0.353-5.486,0.42-8.103c0.964-3.267,2.066-6.527,3.479-9.621c2.613-5.719,5.315-11.414,8.327-16.928
			c2.321-4.248,5.174-8.206,7.794-12.291c0.365-0.57,0.751-1.126,1.128-1.689c0.273-0.321,0.546-0.642,0.98-1.154
			C313.616,242.537,313.376,242.556,313.136,242.574z M308.822,301.011c0.816-0.565,1.474-0.913,2-1.403
			c2.255-2.098,4.648-4.083,6.664-6.394c3.828-4.388,7.437-8.966,11.12-13.479c0.385-0.471,0.757-0.997,0.965-1.561
			c0.897-2.441,1.835-4.874,2.569-7.366c2.072-7.041,4.447-13.96,7.654-20.577c2.18-4.497,4.304-9.022,6.437-13.542
			c0.212-0.449,0.311-0.951,0.52-1.612c-1.618,0-2.991-0.071-4.352,0.025c-0.868,0.062-1.799,0.212-2.565,0.595
			c-3.811,1.909-7,4.546-9.14,8.306c-1.153,2.025-1.46,4.249-1.435,6.541c0.009,0.856,0.001,1.713,0.001,2.515
			c-1.565,0.884-3.067,0.543-4.811,0.334c-1.943,4.426-4.003,8.824-5.817,13.322c-2.305,5.714-4.422,11.504-6.599,17.268
			C310.013,289.336,308.482,294.791,308.822,301.011z M362.232,237.943c-0.167,0.461-0.35,0.969-0.536,1.476
			c-1.831,5.013-3.661,10.026-5.494,15.039c-0.94,2.57-1.986,5.107-2.805,7.714c-2.133,6.787-4.186,13.6-6.236,20.413
			c-1.131,3.759-1.803,7.593-1.594,11.541c0.022,0.409,0.137,0.813,0.261,1.511c0.617-0.824,1.053-1.352,1.43-1.918
			c6.241-9.369,13.379-18.032,20.768-26.503c1.396-1.6,2.745-3.224,4.775-4.069c0.231-7.781,1.047-15.379,2.994-22.811
			C371.229,239.531,366.872,238.762,362.232,237.943z M531.414,252.298c-0.18-1.626-0.253-3.273-0.564-4.873
			c-0.451-2.321-1.459-2.782-3.662-1.868c-0.315,0.131-0.612,0.304-0.913,0.464c-3.372,1.794-5.603,4.744-7.814,7.716
			c-4.247,5.709-6.998,12.212-9.918,18.629c-2.023,4.445-3.51,9.065-4.423,13.85c-0.382,2.003-0.477,4.072-0.554,6.117
			c-0.046,1.232,0.403,1.616,1.611,1.587c0.654-0.016,1.448-0.115,1.929-0.493c2.247-1.768,4.704-3.397,6.518-5.553
			c2.049-2.435,3.681-5.281,5.157-8.124c2.518-4.849,4.809-9.817,7.108-14.776c0.515-1.112,1.125-1.852,2.371-1.896
			c1.086-0.038,1.589-0.689,1.779-1.644C530.64,258.422,531.5,255.441,531.414,252.298z M470.384,244.381
			c-0.393,0.173-0.7,0.289-0.99,0.438c-3.987,2.049-7.18,5.028-9.757,8.64c-5.72,8.018-10.501,16.522-13.121,26.106
			c-0.198,0.725-0.458,1.434-0.698,2.148c-1.45,4.326-2.225,8.756-1.96,13.329c0.056,0.977,0.299,1.943,0.497,3.171
			c0.501-0.384,0.745-0.508,0.904-0.702c5.556-6.772,11.104-13.55,16.769-20.468c-1.263-0.113-2.381-0.322-2.797-1.128
			c2.973-5.694,5.918-11.104,8.631-16.628c1.261-2.567,2.141-5.331,3.071-8.048C471.716,248.955,471.385,246.694,470.384,244.381z
			 M400.027,231.8c1.829,0.201,2.933-0.073,4.382-0.895c3.242-1.841,5.899-4.278,8.438-7.047
			c4.845-5.284,8.628-11.081,10.736-17.943c0.668-2.174,1.148-4.364,0.644-6.655c-0.514-2.338-1.645-2.963-3.834-2.092
			c-2.519,1.003-4.38,2.85-5.829,5.019c-2.313,3.464-4.659,6.943-6.545,10.644c-2.479,4.865-4.555,9.938-6.737,14.951
			C400.749,229.005,400.474,230.339,400.027,231.8z M566.053,324.762c-3.945,3.16-7.178,6.758-9.991,10.735
			c-1.945,2.75-3.618,5.66-4.484,8.953c-0.481,1.832-0.701,3.688-0.181,5.619C557.073,346.348,563.77,332.388,566.053,324.762z
			 M580.355,277.335c-0.409,0.987-1.541,1.785-1.02,3.379C580.375,279.639,580.189,278.437,580.355,277.335z M580.747,276.282
			l-0.021-0.184l0.103,0.019L580.747,276.282z"/>
		<path style="fill:#030303;" d="M216.362,289.736c8.125-10.254,11.573-21.719,8.71-34.694c-0.982-4.449-2.963-8.498-6.242-11.794
			c-0.271-0.577-0.577-0.665-0.932-0.066c-0.353,0.41-0.706,0.82-1.059,1.23c-0.526,0.576-1.052,1.152-1.577,1.729
			c-0.422,0.419-0.843,0.837-1.265,1.256c-0.578,0.527-1.156,1.054-1.734,1.582c-1.658,1.077-3.284,2.207-4.98,3.221
			c-4.786,2.861-10.101,4.097-15.53,4.982c-2.696,0.44-5.379,0.963-8.247,1.481c-0.142,0.357-0.387,0.838-0.529,1.347
			c-3.028,10.873-6.049,21.749-9.055,32.628c-0.18,0.651-0.23,1.338-0.34,2.008c-0.072,0.285-0.143,0.569-0.215,0.854
			c-0.581,2.317-1.118,4.646-1.757,6.946c-0.455,1.637-1.049,3.237-1.581,4.853c-0.318,0.31-0.636,0.62-0.954,0.93
			c-1.512,0.411-3.001,0.968-4.539,1.206c-3.94,0.611-7.25-0.842-10.174-3.394c-0.823-0.718-1.649-1.465-2.579-2.021
			c-0.928-0.555-1.988-0.888-3.053-1.344c-0.512-0.841-0.031-1.652,0.258-2.48c4.136-11.829,8.926-23.399,13.696-34.982
			c5.48-13.308,11.515-26.344,18.206-39.082c1.176-2.239,2.184-4.568,3.241-6.869c0.647-1.408,0.964-1.644,2.501-1.578
			c2.187,0.094,3.89,1.389,5.424,2.66c0.698,0.578,0.892,2.167,0.779,3.242c-0.271,2.579-0.683,5.173-1.357,7.675
			c-1.371,5.09-2.956,10.122-4.443,15.18c-0.153,0.52-0.242,1.058-0.361,1.588c-0.043,0.155-0.086,0.309-0.13,0.464
			c0.165-0.005,0.329-0.01,0.494-0.014c3.577-1.338,6.812-3.294,9.453-6.02c2.759-2.847,5.421-5.826,7.796-8.994
			c1.579-2.107,2.816-4.554,3.781-7.016c1.195-3.048,2.241-6.215,2.833-9.427c1.073-5.825,0.592-11.574-1.825-17.1
			c-0.681-1.557-1.756-2.231-3.308-2.251c-5.776-0.074-11.265,0.948-16.366,3.896c-8.102,4.682-14.291,11.239-19.081,19.159
			c-0.889,1.471-1.138,3.338-1.624,5.039c-0.185,0.646-0.207,1.339-0.293,1.936c-1.001,0.647-1.648,0.092-2.325-0.382
			c-2.718-1.901-5.013-6.539-3.77-10.569c1.436-4.659,3.614-8.914,6.958-12.45c4.717-4.988,10.129-9.057,16.816-11.033
			c5.445-1.609,11.062-1.81,16.702-1.479c0.137,0.008,0.278,0.011,0.408,0.049c5.112,1.507,10.34,2.713,14.878,5.717
			c0.627,0.415,1.227,0.966,1.923,1.168c3.818,1.108,5.745,4.05,7.176,7.398c0.61,1.427,1.038,3.001,1.192,4.543
			c1.001,10.042-1.375,19.286-6.804,27.768c-0.257,0.401-0.518,0.799-0.84,1.293c1.573,0.907,3.061,1.84,4.615,2.647
			c6.151,3.195,10.298,8.154,12.463,14.652c2.876,8.634,2.419,17.274-0.6,25.81c-2.483,7.02-6.613,13.063-11.336,18.712
			c-8.952,10.706-20.431,17.44-33.793,21.092c-7.099,1.94-14.31,3.08-21.712,2.908c-4.445-0.103-8.705-0.918-12.793-2.628
			c-6.172-2.582-11.712-6.255-17.079-10.174c-4.353-3.179-6.257-7.635-6.199-13.007c0.055-5.105,1.186-9.929,3.681-14.376
			c0.791-1.409,1.818-2.765,3.001-3.859c2.539-2.346,5.024-2.12,7.319,0.224c-0.635,4.994-1.34,9.8-1.814,14.628
			c-0.198,2.021,0.095,4.091,0.164,6.139c0.067,0.56,0.134,1.12,0.201,1.679c0.104,0.805,0.119,1.633,0.327,2.41
			c2.145,8.02,10.133,13.42,18.575,12.574c19.039-1.907,34.527-10.549,47.021-24.842c0.893-1.021,1.677-2.138,2.512-3.211
			C215.632,290.646,215.997,290.191,216.362,289.736z"/>
		<path style="fill:#F3C91D;" d="M406.553,310.822c0.459,0.899,0.918,1.798,1.377,2.697c-3.133,0.164-6.264,0.378-9.399,0.48
			c-5.53,0.179-11.064,0.261-16.594,0.444c-1.834,0.061-3.665,0.282-5.492,0.478c-3.377,0.363-6.743,0.862-10.128,1.116
			c-3.325,0.25-6.669,0.247-9.915,1.166c-0.386,0.109-0.815,0.062-1.223,0.096c-3.39,0.288-6.848,0.256-10.152,0.952
			c-3.753,0.791-7.559,0.913-11.312,1.533c-0.938,0.155-1.879,0.3-2.825,0.389c-1.898,0.179-3.811,0.232-5.697,0.488
			c-3.495,0.474-6.973,1.079-10.464,1.586c-1.479,0.215-2.974,0.331-4.463,0.473c-2.706,0.258-5.414,0.505-8.121,0.747
			c-0.27,0.024-0.56,0.029-0.818-0.04c-1.395-0.373-2.638,0.498-4.002,0.467c-0.646-0.015-1.295,0.286-1.951,0.4
			c-0.869,0.151-1.741,0.326-2.618,0.369c-0.84,0.041-1.687-0.075-2.639-0.128c0.095,1.119,0.613,1.514,1.512,1.357
			c2.744-0.479,5.5-0.588,8.276-0.402c0.314,0.021,0.64-0.183,0.964-0.264c0.709-0.178,1.412-0.415,2.132-0.501
			c1.756-0.21,3.528-0.293,5.281-0.525c3.636-0.481,7.253-1.349,10.896-1.456c3.918-0.115,7.677-1.1,11.544-1.423
			c4.193-0.349,8.359-1.02,12.537-1.554c1.886-0.242,3.768-0.514,5.656-0.737c2.702-0.318,5.404-0.63,8.112-0.893
			c2.033-0.197,4.113-0.115,6.104-0.506c4.17-0.818,8.362-1.144,12.596-1.164c0.539-0.003,1.076-0.15,1.617-0.197
			c2.372-0.208,4.743-0.433,7.119-0.593c1.136-0.077,2.283,0.025,3.42-0.04c1.424-0.083,2.856-0.173,4.259-0.411
			c1.352-0.229,2.669-0.38,4.012,0.002c0.248,0.071,0.543-0.014,0.816-0.039c1.285-0.116,2.569-0.309,3.856-0.341
			c2.67-0.069,5.343-0.053,8.014-0.073c7.103,6.375,17.621,5.176,23.144-2.636c0.156-0.22,0.34-0.42,0.511-0.629
			c7.514,0.612,14.984,1.49,22.21,3.78c4.133,1.31,8.078,3.037,11.59,5.62c5.625,4.137,8.831,9.772,10.134,16.562
			c-0.481,0.377-0.266,0.639,0.144,0.868c0.05,1.476,0.1,2.951,0.15,4.427c-0.199,0.163-0.496,0.285-0.584,0.495
			c-1.131,2.684-2.413,5.243-5.057,6.803c-0.158,0.093-0.24,0.316-0.358,0.479c-0.515,0.162-1.037,0.307-1.545,0.488
			c-3.63,1.294-7.261,2.583-11.14,2.931c-1.946-0.015-3.892-0.029-5.837-0.044c0.321-0.272,0.618-0.738,0.966-0.779
			c0.938-0.112,1.916,0.074,2.842-0.077c0.957-0.156,1.871-0.571,2.804-0.872c0.199-0.111,0.397-0.222,0.596-0.332
			c-0.148-0.09-0.296-0.18-0.444-0.27c-0.612-0.04-1.243-0.197-1.834-0.101c-3.459,0.561-6.905,0.561-10.374,0.051
			c-0.699-0.103-1.46,0.22-2.192,0.35c-0.395,0.07-1.01,0.345-1.146,0.191c-0.891-1.008-2.065-0.68-3.147-0.847
			c-2.472-0.381-4.804-1.643-7.441-1.062c-0.499,0.11-1.115-0.311-1.723-0.501c-0.23,0.276-0.514,0.616-0.525,0.629
			c-1.598,0.09-2.818,0.158-4.227,0.238c-0.711-0.906-0.891-0.96-1.761-0.041c-0.352,0.372-0.527,0.911-0.783,1.374
			c-0.408-0.001-0.816-0.001-1.224-0.001c-0.901-0.548-1.801-1.096-2.514-1.529c-0.863,0.367-1.563,0.641-2.234,0.973
			c-0.126,0.063-0.136,0.359-0.2,0.548c-0.274-0.002-0.548-0.005-0.821-0.007c-0.251-0.251-0.608-0.763-0.737-0.711
			c-0.824,0.332-1.42,0.033-2.05-0.453c-0.589-0.454-1.292-0.763-1.866-1.233c-0.648-0.531-1.228-0.582-1.796,0.025
			c-0.948,1.014-2.058,0.789-3.186,0.572c-0.039-0.527-0.071-0.961-0.125-1.682c-1.218,0.331-2.231,0.605-3.355,0.91
			c-0.479-0.197-1.08-0.594-1.722-0.681c-2.854-0.385-5.69-1.2-8.611-0.526c-1.507-0.712-3.163,0.232-4.752-0.522
			c-0.785-0.373-2.324-0.336-2.848,0.188c-0.818,0.819-1.823,1.077-2.691,1.658c-0.959-0.001-1.918-0.001-2.877-0.002
			c-0.431-0.139-0.857-0.378-1.293-0.397c-1.219-0.051-2.441-0.011-3.662-0.007c-4.258,0.135-8.518,0.243-12.775,0.419
			c-2.02,0.084-4.036,0.291-6.052,0.467c-0.173,0.015-0.329,0.214-0.494,0.328c-0.542,0.009-1.084,0.018-1.626,0.027
			c-0.281,0.111-0.562,0.222-0.844,0.333c-2.037,0.357-4.074,0.714-6.111,1.07c-3.5,0.637-4.567,1.054-5.624,2.241
			c0.388,0,0.714,0,1.04,0c0.371,0.828,1.024,0.969,1.825,0.748c4.862,0.553,9.723,1.106,14.585,1.659
			c0.227,0.447,0.493,0.629,0.861,0.129c13.195,1.561,24.48,6.732,32.822,17.42c1.609,2.061,2.985,4.271,3.464,6.915
			c0.037,0.202,0.108,0.398,0.137,0.601c0.337,2.327-0.667,3.404-3.06,3.285c-0.006-0.33-0.361-0.808-1.083-1.446
			c-0.471-0.416-0.948-0.827-1.584-1.382c0.557-2.076-0.449-3.651-2.202-5.16c-4.7-4.046-10.235-6.28-16.102-7.865
			c-5.912-1.597-11.973-2.151-18.06-2.578c-4.227-0.297-8.451-0.721-12.653-1.262c-2.509-0.323-4.654-1.594-6.398-3.444
			c-1.353-1.436-2.887-2.78-3.911-4.431c-2.765-4.46-2.561-10.094,2.644-13.21c2.803-1.678,5.841-2.689,8.974-3.454
			c6.748-1.647,13.619-2.371,20.549-2.541c10.144-0.248,20.274,0.082,30.397,0.765c7.789,0.525,15.588,0.904,23.378,1.42
			c8.538,0.565,17.068,1.271,25.608,1.804c5.413,0.338,10.835,0.22,16.132-1.1c1.702-0.424,3.372-1.164,4.902-2.032
			c1.031-0.585,1.916-1.553,2.638-2.52c0.847-1.133,0.652-1.7-0.459-2.613c-0.579-0.476-1.169-0.939-1.754-1.408
			c0.626-0.355,0.498-0.775,0.015-1.09c-0.561-0.366-1.163-0.692-1.787-0.933c-1.56-0.603-3.142-1.148-4.716-1.716
			c-0.655-0.154-1.315-0.288-1.963-0.465c-1.943-0.53-3.882-1.077-5.822-1.618c-0.069-0.463,0.017-1.065-0.244-1.355
			c-0.387-0.429-0.988-0.774-1.555-0.906c-1.121-0.26-1.517,0.632-1.899,1.452c-0.139-0.004-0.277-0.009-0.416-0.013
			c-0.392-0.603-0.655-1.507-1.205-1.743c-0.939-0.403-1.945-0.832-3.124-0.492c-1.083,0.312-2.34,0.582-3.391,0.332
			c-2.292-0.547-4.98,0.133-6.812-2.013c-0.141-0.165-0.516-0.118-0.772-0.2c-1.118-0.359-2.12-0.034-3.225,0.252
			c-1.167,0.302-2.484,0.023-4.011-0.007c-1.091-1.175-3.632-1.558-5.852-0.634c-0.126-0.005-0.252-0.007-0.379-0.004
			c-1.656-0.815-3.1-0.309-4.464,0.985c-0.924-1.647-2.193-1.611-3.689-1.207c-0.037,0.652-0.071,1.247-0.104,1.843
			c-0.127,0.014-0.255,0.022-0.383,0.026c-0.948-0.066-1.895-0.145-2.844-0.191c-0.319-0.016-0.647,0.025-0.963,0.082
			c-0.848,0.154-1.687,0.445-2.538,0.478c-4.622,0.178-9.247,0.272-13.87,0.444c-2.032,0.076-4.062,0.252-6.089,0.423
			c-0.303,0.026-0.588,0.271-0.881,0.414c-0.544,0.004-1.089,0.008-1.633,0.013c-0.107-0.308-0.214-0.616-0.409-1.178
			c1.947-0.268,3.729-0.514,5.51-0.76c-2.514-0.894-4.916-0.437-7.454,0.035c0.391,0.613,0.685,1.074,1.153,1.808
			c-1.546,0.177-2.81,0.359-4.081,0.458c-2.237,0.173-4.48,0.278-6.717,0.453c-0.465,0.036-0.99,0.15-1.353,0.413
			c-0.318,0.231-0.447,0.722-0.66,1.099c-0.262,0.012-0.523,0.023-0.785,0.035c-0.059-0.319-0.118-0.638-0.207-1.118
			c-4.6,0.537-9.098,1.083-13.601,1.582c-4.045,0.449-8.097,0.837-12.143,1.272c-1.482,0.159-2.996,0.231-4.428,0.601
			c-1.807,0.466-3.604,0.677-5.456,0.622c-0.745-0.022-1.497,0.046-2.241,0.126c-3.37,0.362-6.738,0.742-10.106,1.115
			c-0.68,0.131-1.361,0.262-2.041,0.392c-0.397-0.179-1.051-0.271-1.146-0.552c-0.384-1.134-1.24-1.209-2.132-1.053
			c-0.81,0.142-1.824,0.094-2.078,1.243c-0.186,0.843-0.699,0.868-1.362,0.54c0.099-0.442,0.189-0.846,0.351-1.569
			c-2.232,0.222-4.219,0.419-6.252,0.621c-0.048,0.694-0.081,1.157-0.113,1.62c-0.136,0.134-0.273,0.269-0.409,0.403
			c-0.739-0.037-1.517,0.083-2.031-0.686c-0.114-0.171-0.536-0.353-0.635-0.281c-0.853,0.621-2.187,0.037-2.837,1.143
			c-0.037,0.062-0.25,0.02-0.381,0.027c-0.27-0.351-0.539-0.703-0.84-1.097c-1.51,0.929-2.792,2.235-4.705,1.345
			c-0.264-0.123-0.74,0.22-1.121,0.336c-0.309,0.094-0.62,0.228-0.936,0.244c-1.318,0.069-2.639,0.132-3.958,0.131
			c-0.522,0-1.072-0.1-1.559-0.287c-0.55-0.211-1.074-0.846-1.553-0.792c-0.537,0.061-1.01,0.686-1.179,0.814
			c-1.272,0.069-2.193,0.126-3.115,0.167c-1.198,0.053-2.538,0.457-3.566,0.06c-2.02-0.78-3.994-0.095-5.97-0.31
			c-1.753-0.191-3.516-0.297-5.276-0.417c-0.764-0.052-1.531-0.044-1.911,0.825c-0.686-0.14-1.372-0.28-2.058-0.42
			c-0.038-0.838-0.638-0.827-1.237-0.819c-0.271-0.007-0.543-0.014-0.814-0.021c-0.247-0.264-0.451-0.606-0.751-0.771
			c-0.4-0.219-0.876-0.3-1.32-0.44l0.001,0.003c-0.138-1.134-1.007-0.756-1.669-0.808c-0.264-0.008-0.529-0.016-0.793-0.024
			c-0.194-0.608-0.148-1.588-1.241-0.799c-1.405-0.533-2.81-1.065-4.215-1.598c-0.113-0.019-0.203-0.075-0.271-0.166
			c-0.354-1.06-0.948-1.846-2.178-1.905c-0.117-0.028-0.211-0.092-0.281-0.19c-0.487-1.134-1.245-1.984-2.462-2.354
			c-4.246-4.241-6.231-9.44-6.15-15.36c0.053-3.909,1.701-7.159,5.135-9.279c0.9-0.556,1.885-1.187,3.021-0.446
			c-0.331,0.199-0.661,0.398-0.992,0.597c0.04,0.072,0.08,0.143,0.12,0.215c0.287-0.159,0.573-0.318,0.86-0.478
			c0.134,0.031,0.269,0.061,0.404,0.092c0.268,0.311,0.536,0.622,0.804,0.933c-0.048,0.112-0.027,0.21,0.062,0.293
			c-0.034,0.41-0.068,0.821-0.102,1.231c-0.409,0.676-0.818,1.352-1.226,2.029c-0.132,0.285-0.264,0.57-0.396,0.855
			c-0.955,1.51-1.177,3.2-1.207,4.936c0.013,0.96,0.025,1.921,0.038,2.881c0.131,3.584,2.223,5.718,5.279,7.138
			c0.428,0.24,0.855,0.479,1.283,0.719c2.896,1.8,6.141,2.639,9.432,3.233c5.617,1.014,11.289,1.064,16.969,0.599
			c2.176-0.178,4.352-0.368,6.528-0.552c0.411-0.021,0.823-0.043,1.234-0.064c3.336-0.287,6.682-0.487,10.006-0.876
			c9.783-1.146,19.559-2.356,29.336-3.564c6.789-0.839,13.573-1.713,20.358-2.582c0.403-0.052,0.795-0.192,1.192-0.292
			c0.274-0.021,0.548-0.042,0.823-0.063c3.667-0.397,7.332-0.816,11.002-1.186c5.987-0.603,11.968-1.293,17.967-1.728
			c8.865-0.644,17.743-1.107,26.617-1.623C401.629,310.972,404.092,310.917,406.553,310.822z M450.117,345.606
			c0.421,0.636,0.853,0.623,1.295,0.022c1.162-0.006,2.326,0.035,3.485-0.028c2.535-0.137,5.025-0.521,7.333-1.666
			c0.707-0.351,1.503-0.681,1.211-1.759c-0.622,0.098-1.155,0.181-1.687,0.265c-0.775,0.039-1.48,0.194-1.751,1.063
			c-2.865,0.46-5.73,0.92-8.595,1.38c-0.45,0.013-0.9,0.025-1.351,0.038c-0.235,0.013-0.471,0.026-0.706,0.038
			c-0.695-0.167-1.385-0.45-2.086-0.482c-3.477-0.156-6.967,0.228-10.438-0.41c-1.598-0.294-3.251-0.287-4.877-0.434
			c-1.082-0.098-2.159-0.273-3.243-0.33c-1.106-0.058-2.217-0.013-3.462-0.013c0.602,1.218,1.356,1.621,2.431,1.589
			c1.162-0.035,2.333-0.03,3.491,0.064c2.642,0.215,5.276,0.543,7.919,0.736c2.652,0.195,5.31,0.326,7.967,0.39
			c0.76,0.018,1.528-0.295,2.292-0.455C449.604,345.612,449.86,345.609,450.117,345.606z M346.055,350.203
			c-0.176,0.087-0.352,0.175-0.528,0.262c0.162,0.042,0.324,0.083,0.486,0.125c2.219-0.537,4.438-1.073,6.657-1.61
			c-0.039-0.166-0.078-0.332-0.117-0.498c-1.896,0.382-3.795,0.747-5.683,1.164C346.572,349.713,346.325,350.012,346.055,350.203z
			 M351.76,341.652c-3.319,0.666-6.64,1.327-9.957,2c-2.255,0.458-4.438,1.535-5.512,2.667c5.142-1.291,10.34-2.597,15.538-3.903
			c0.677-0.012,1.369,0.064,2.028-0.052c3.526-0.619,7.066-1.008,10.652-0.836c1.298-0.02,2.598-0.011,3.894-0.068
			c1.358-0.059,2.715-0.279,4.068-0.251c2.155,0.044,4.306,0.274,6.461,0.357c4.298,0.166,8.598,0.287,12.897,0.426
			c0.068,0.002,0.138,0.001,0.205,0.009c4.858,0.598,9.737,0.814,14.629,0.811c0.411,0,0.823-0.001,1.232,0.028
			c3.665,0.26,7.331,0.52,10.995,0.797c1.082,0.082,2.159,0.242,3.241,0.319c0.764,0.054,1.612,0.382,2.489-0.755
			c-1.315-0.087-2.346-0.132-3.371-0.229c-1.827-0.173-3.647-0.456-5.478-0.555c-3.611-0.194-7.227-0.293-10.841-0.437
			c-0.34-0.014-0.678-0.067-1.017-0.111c-1.819-0.233-3.631-0.563-5.458-0.683c-3.198-0.211-6.404-0.304-9.607-0.427
			c-3.888-0.15-7.775-0.329-11.664-0.403c-3.63-0.069-7.263-0.033-10.894,0.002c-0.575,0.006-1.148,0.254-1.722,0.39
			c-2.649,0.133-5.3,0.235-7.946,0.409C354.999,341.267,353.381,341.484,351.76,341.652z M460.736,351.798
			c2.467,0.435,6.036-0.619,7.215-2.009C465.451,350.485,463.094,351.142,460.736,351.798z M466.693,346.636
			c0.028-0.155,0.057-0.31,0.085-0.465c-0.412-0.067-0.884-0.297-1.225-0.171c-1.057,0.388-2.069,0.9-3.087,1.39
			c-0.293,0.141-0.543,0.368-1.039,0.712C463.601,348.233,465.061,347.158,466.693,346.636z M340.114,352.784
			c1.626-0.309,3.101-0.947,4.414-1.939C342.803,350.936,341.328,351.575,340.114,352.784z M342.381,348.201
			c-0.003-0.136-0.007-0.272-0.01-0.408c-1.547,0.007-2.756,0.775-3.902,1.688c0.06,0.141,0.12,0.281,0.181,0.422
			C339.894,349.336,341.137,348.768,342.381,348.201z M288.346,325.682c0.09-0.149,0.18-0.299,0.27-0.448
			c-0.245-0.092-0.502-0.279-0.731-0.249c-0.198,0.026-0.392,0.28-0.523,0.477c-0.03,0.044,0.198,0.37,0.328,0.386
			C287.899,325.871,288.126,325.745,288.346,325.682z M375.917,322.539c-0.115-0.05-0.23-0.099-0.345-0.149
			c-0.049,0.115-0.162,0.255-0.13,0.338c0.032,0.082,0.212,0.106,0.327,0.156C375.818,322.769,375.868,322.654,375.917,322.539z"/>
		<path style="fill:#F3C91D;" d="M262.967,158.149c-0.731,0.458-1.408,1.129-2.204,1.333c-2.366,0.605-4.77,1.075-7.177,1.497
			c-1.203,0.211-2.442,0.232-3.668,0.282c-0.676,0.027-1.359-0.047-2.036-0.108c-0.747-0.067-1.489-0.192-2.237-0.255
			c-2.717-0.232-5.47-0.245-8.144-0.716c-4.88-0.861-9.695-2.35-13.567-5.443c-5.084-4.062-7.264-8.864-4.902-15.765
			c0.57-1.666,1.846-3.232,3.147-4.478c3.567-3.414,7.893-4.468,12.692-3.276c5.195,1.29,8.709,4.728,11.209,9.257
			c3.125,5.663,6.758,10.899,11.613,15.24c1.506,1.347,3.263,1.863,5.215,2.008C262.928,157.866,262.947,158.008,262.967,158.149z"
			/>
		<path style="fill:#F3C91D;" d="M271.469,169.582c-0.51,0.445-0.827,0.766-1.187,1.027c-2.897,2.104-5.037,4.918-6.524,8.061
			c-2.038,4.305-3.661,8.809-5.382,13.258c-1.379,3.566-2.525,7.226-3.994,10.753c-0.999,2.397-2.372,4.623-4.889,5.849
			c-1.997,0.972-4.293,0.72-5.908-0.76c-2.701-2.476-4.633-5.573-5.33-9.056c-0.966-4.829-0.587-9.728,2.143-14.058
			c2.689-4.264,6.253-7.708,10.308-10.743c2.929-2.192,6.152-3.523,9.572-4.505c3.131-0.899,6.355-0.834,9.571-0.54
			c0.33,0.03,0.653,0.192,0.968,0.32C271,169.262,271.159,169.391,271.469,169.582z"/>
		<path style="fill:#F3C91D;" d="M486.372,176.759c2.767-1.122,4.803-3.135,6.584-5.398c3.468-4.408,6.911-8.837,10.266-13.332
			c2.004-2.685,3.74-5.569,5.737-8.259c3.085-4.155,7.145-6.863,12.258-8.008c3.301-0.739,5.878,1.618,6.718,3.802
			c0.819,2.13,0.923,4.331,0.289,6.628c-1.613,5.846-5.353,10.056-10.01,13.632c-0.868,0.666-1.704,1.375-2.537,2.085
			c-3.406,2.903-7.432,4.632-11.662,5.799c-4.794,1.322-9.666,2.37-14.523,3.452c-0.944,0.21-1.975,0.03-2.966,0.03
			C486.474,177.047,486.423,176.903,486.372,176.759z"/>
		<path style="fill:#0E0E0E;" d="M289.011,158.776c8.777-0.22,17.309-0.435,25.946-0.652c0.05-0.188,0.167-0.433,0.172-0.68
			c0.127-6.918,0.262-13.837,0.348-20.756c0.022-1.778-0.163-3.559-0.161-5.338c0.001-1.764,0.574-2.599,1.645-2.65
			c1.151-0.055,1.803,0.81,1.8,2.698c-0.012,6.303-0.088,12.605-0.124,18.908c-0.044,7.606-0.132,15.214-0.086,22.82
			c0.03,4.999,0.197,10,0.443,14.993c0.096,1.953-0.709,2.57-1.589,2.6c-1.11,0.038-1.797-0.803-1.832-2.481
			c-0.165-8.081-0.291-16.163-0.427-24.244c-0.013-0.739-0.002-1.479-0.002-2.404c-8.806,0.198-17.403,0.391-26.134,0.587
			c-0.058,0.959-0.139,1.765-0.15,2.571c-0.105,7.674-0.248,15.347-0.256,23.021c-0.002,1.792-0.593,2.534-1.636,2.598
			c-1.097,0.067-1.786-0.86-1.773-2.52c0.051-6.166,0.138-12.331,0.228-18.497c0.041-2.809,0.089-5.618,0.184-8.426
			c0.205-6.022,0.486-12.042,0.653-18.065c0.101-3.63,0.041-7.264,0.062-10.896c0.004-0.685,0.001-1.374,0.08-2.052
			c0.097-0.84,0.591-1.378,1.452-1.485c0.814-0.101,1.517,0.469,1.733,1.421c0.09,0.395,0.083,0.817,0.083,1.227
			c-0.004,4.043,0.063,8.089-0.047,12.129c-0.113,4.173-0.407,8.34-0.604,12.511C288.975,156.6,289.011,157.489,289.011,158.776z"/>
		<path style="fill:#0F0F0F;" d="M339.862,163.532c-1.973,6.937-3.908,13.85-5.919,20.74c-0.554,1.897-1.289,3.747-2.034,5.58
			c-0.434,1.067-1.29,1.431-2.121,1.063c-0.902-0.399-1.086-1.16-0.936-2.053c0.022-0.134,0.066-0.266,0.111-0.395
			c2.874-8.199,4.812-16.679,7.47-24.944c2.03-6.313,3.91-12.675,5.917-18.996c1.322-4.166,2.716-8.31,4.16-12.435
			c0.307-0.876,0.898-1.686,1.491-2.419c0.707-0.874,1.769-0.862,2.444,0.081c0.587,0.82,1.075,1.768,1.365,2.732
			c1.139,3.796,2.266,7.6,3.245,11.439c1.91,7.484,3.768,14.981,5.548,22.496c0.961,4.06,1.667,8.179,2.576,12.252
			c0.893,3.998,1.897,7.972,2.853,11.957c-1.984,0.782-2.093,0.841-3.084-0.85c-0.711-1.213-1.276-2.574-1.595-3.941
			c-1.306-5.597-2.485-11.224-3.726-16.837c-0.44-1.989-0.924-3.968-1.392-5.967C350.77,162.757,345.46,162.659,339.862,163.532z
			 M355.164,159.333c-0.37-4.173-5.228-22.486-6.515-24.124c-2.455,8.246-4.86,16.325-7.282,24.461
			C346.017,159.557,350.504,159.447,355.164,159.333z"/>
		<path style="fill:#F3C91D;" d="M508.427,182.316c8.347-3.949,16.451-3.779,24.473-0.264c5.683,2.49,8.891,7.024,9.92,13.166
			c0.466,2.784,0.235,5.341-1.683,7.509c-1.846,2.087-4.183,3.305-7.023,3.089c-0.812-0.062-1.779-0.522-2.326-1.119
			c-1.279-1.396-2.617-2.852-3.442-4.525c-1.455-2.952-2.941-5.922-5.028-8.407c-2.758-3.284-5.884-6.287-10.169-7.665
			C511.67,183.625,510.237,183.006,508.427,182.316z"/>
		<path style="fill:#0D0D0D;" d="M378.585,163.32c0,5.885,0.001,11.43,0,16.974c0,2.673-0.001,5.346-0.01,8.019
			c-0.002,0.547,0.025,1.107-0.077,1.639c-0.178,0.921-0.924,1.516-1.733,1.424c-0.846-0.096-1.377-0.603-1.503-1.441
			c-0.081-0.538-0.062-1.093-0.061-1.64c0.03-18.367,0.063-36.734,0.092-55.102c0.001-0.753-0.056-1.507-0.042-2.26
			c0.024-1.282,0.513-1.904,1.805-2.051c4.823-0.548,9.643-1.224,14.518-0.896c0.671,0.045,1.343,0.223,1.99,0.421
			c2.708,0.828,5.105,2.252,7.418,3.859c1.247,0.867,2.051,2.024,2.538,3.39c1.969,5.528,1.887,10.897-1.578,15.869
			c-1.247,1.79-2.679,3.456-4.09,5.125c-1.21,1.432-2.788,2.357-4.456,3.221C388.81,162.246,383.981,163.505,378.585,163.32z
			 M378.664,159.636c0.296,0.102,0.422,0.182,0.549,0.184c7.292,0.114,13.578-2.107,18.354-7.875
			c3.536-4.271,4.696-9.041,3.035-14.386c-0.236-0.758-0.619-1.608-1.201-2.096c-2.272-1.904-4.806-3.62-7.742-4.007
			c-4.33-0.571-8.676-0.019-12.994,0.806C378.664,141.456,378.664,150.49,378.664,159.636z"/>
		<path style="fill:#0D0D0D;" d="M418.141,163.533c0,6.486,0,12.98,0,19.583c-1.125,0.137-2.117,0.258-3.319,0.404
			c-0.04-0.611-0.113-1.197-0.113-1.782c0.021-16.045,0.051-32.091,0.076-48.136c0.001-0.891-0.053-1.782-0.037-2.672
			c0.022-1.281,0.515-1.901,1.81-2.049c4.757-0.542,9.512-1.233,14.319-0.885c1.07,0.078,2.207,0.285,3.157,0.751
			c2.2,1.079,4.311,2.341,6.446,3.55c1.398,0.792,2.134,2.138,2.625,3.566c1.881,5.476,1.752,10.79-1.68,15.686
			c-1.253,1.788-2.685,3.454-4.097,5.124c-1.212,1.433-2.797,2.348-4.466,3.212c-4.408,2.281-9.036,3.527-14.008,3.466
			C418.665,163.348,418.474,163.444,418.141,163.533z M418.21,131.954c0,9.527,0,18.618,0,27.713
			c0.285,0.073,0.477,0.165,0.668,0.166c7.195,0.02,13.438-2.146,18.164-7.859c3.533-4.271,4.712-9.03,3.08-14.384
			c-0.319-1.046-0.792-2.052-1.809-2.652c-1.469-0.867-2.91-1.785-4.416-2.582c-1.404-0.742-2.926-1.155-4.542-1.061
			C425.676,131.507,421.999,131.729,418.21,131.954z"/>
		<path style="fill:#0E0E0E;" d="M466.96,156.497c1.469-1.093,2.177-2.442,2.954-3.696c2.918-4.711,5.852-9.415,8.615-14.217
			c1.463-2.543,2.58-5.284,3.868-7.929c0.238-0.488,0.438-1.123,0.848-1.366c0.521-0.309,1.277-0.48,1.86-0.36
			c0.75,0.154,1.026,0.923,0.862,1.647c-0.164,0.723-0.479,1.419-0.785,2.101c-2.835,6.318-6.32,12.291-9.886,18.208
			c-1.764,2.926-3.837,5.668-5.823,8.456c-0.544,0.764-0.786,1.508-0.783,2.453c0.02,4.867,0.008,9.735-0.066,14.602
			c-0.063,4.179-0.211,8.357-0.35,12.534c-0.046,1.393-0.691,2.124-1.726,2.094c-1.021-0.029-1.626-0.753-1.631-2.181
			c-0.008-2.604,0.059-5.209,0.101-7.814c0.102-6.236,0.198-12.471,0.322-18.706c0.018-0.923-0.246-1.667-0.723-2.475
			c-1.042-1.764-1.868-3.654-2.82-5.473c-1.522-2.908-3.188-5.746-4.589-8.71c-2.192-4.638-4.229-9.349-6.295-14.046
			c-0.517-1.176-0.213-2.034,0.692-2.438c0.802-0.357,1.644-0.092,2.196,0.967c0.916,1.757,1.741,3.567,2.508,5.394
			c2.095,4.988,4.314,9.907,7.139,14.54c0.887,1.455,1.507,3.071,2.296,4.588C466.069,155.286,466.517,155.838,466.96,156.497z"/>
		<path style="fill:#050505;" d="M277.952,209.104c1.322,0.496,2.667,0.939,3.958,1.506c0.806,0.353,1.498,0.965,2.301,1.328
			c0.994,0.448,1.305,1.126,1.04,2.137c-0.087,0.33-0.138,0.673-0.259,0.991c-1.337,3.529-2.978,6.91-5.14,10.009
			c-1.473,2.112-3.523,2.416-5.679,0.958c-0.282-0.191-0.509-0.494-0.813-0.618c-1.977-0.803-2.229-2.322-1.793-4.157
			c0.711-2.988,1.28-6.019,2.159-8.956C274.421,209.982,275.476,209.413,277.952,209.104z"/>
		<path style="fill:#F5D34B;" d="M452.201,353.922c1.946,0.015,3.892,0.029,5.837,0.044c1.155,0.699,2.368,0.329,3.566,0.182
			c1.548-0.189,3.093-0.392,4.64-0.59c-0.339,0.257-0.648,0.678-1.021,0.746c-2.417,0.441-4.838,1.031-7.278,1.152
			c-6.908,0.343-13.808,0.14-20.696-0.631c-4.071-0.456-8.172-0.643-12.258-0.979c-6.061-0.497-12.12-1.033-18.182-1.523
			c-2.52-0.204-5.047-0.316-7.568-0.501c-3.746-0.275-7.491-0.579-11.236-0.87c0.111-0.699,0.455-1.136,1.229-1.077
			c1.457,0.112,2.912,0.262,4.371,0.32c0.526,0.021,1.137-0.049,1.576-0.306c1.05-0.615,2.082-0.32,2.89,0.208
			c0.695,0.454,1.193,0.45,1.869,0.201c0.614-0.226,1.667-0.691,1.821-0.496c0.827,1.05,2.076,0.566,2.993,1.045
			c1.897,0.99,3.984,0.775,5.971,0.911c1.06,0.072,2.129,0.036,3.181,0.294c0.988,0.243,1.988,0.535,2.914-0.196
			c0.274,0.002,0.548,0.005,0.821,0.007c0.981,0.048,1.919-0.052,2.856,0.621c0.554,0.398,1.722,0.696,2.092-0.613
			c0.408,0,0.816,0.001,1.224,0.001c0.315,0.632,0.784,0.701,1.495,0.73c1.757,0.07,3.451-1.055,5.316-0.053
			c0.516,0.278,1.469-0.145,2.061,0.685c0.166,0.232,0.911,0.21,1.315,0.078c0.691-0.227,1.323-0.633,1.837-0.892
			c1.29,0.425,2.448,1.006,3.663,1.166c2.73,0.36,5.483,0.597,8.234,0.71C449.216,354.357,450.712,354.058,452.201,353.922z"/>
		<path style="fill:#F5D656;" d="M258.009,333.347c0.686,0.14,1.372,0.28,2.058,0.42c3.786,0.803,7.568,1.661,11.468,1.628
			c2.533-0.022,5.075-0.323,7.593-0.171c1.801,0.109,3.486-0.073,5.186-0.551c0.321-0.09,0.678-0.074,1.018-0.075
			c2.18-0.008,4.36,0.011,6.54-0.015c1.556-0.018,3.142,0.209,4.6-0.654c0.302-0.179,0.813-0.14,1.184-0.041
			c1.643,0.438,2.834-0.373,3.984-1.345c0.136-0.134,0.273-0.269,0.409-0.404c1.322-0.024,2.753-0.067,3.937,0.171
			c1.323,0.266,2.569,0.215,3.813,0.12c0.877-0.066,1.156,0.504,1.672,0.854c-1.394,0.242-2.779,0.57-4.184,0.711
			c-5.913,0.594-11.824,1.231-17.75,1.666c-7.161,0.525-14.342,0.842-21.521,0.455c-7.439-0.4-14.372-2.489-20.594-6.685
			c-0.543-0.366-0.971-0.904-1.453-1.362c1.405,0.533,2.81,1.066,4.215,1.598c0.414,0.266,0.827,0.533,1.241,0.799
			c0.264,0.008,0.529,0.016,0.793,0.023c0.168,1.07,1.009,0.751,1.668,0.808l-0.001-0.003c0.261,1.232,0.261,1.232,2.071,1.211
			c0.271,0.007,0.543,0.014,0.814,0.021C257.184,332.801,257.596,333.074,258.009,333.347z"/>
		<path style="fill:#F4CC2B;" d="M416.82,351.856c-0.926,0.73-1.926,0.438-2.914,0.196c-1.053-0.259-2.122-0.222-3.181-0.294
			c-1.987-0.136-4.074,0.079-5.971-0.911c-0.916-0.478-2.165,0.006-2.993-1.045c-0.154-0.196-1.207,0.27-1.821,0.496
			c-0.676,0.249-1.174,0.253-1.869-0.201c-0.808-0.528-1.84-0.823-2.89-0.208c-0.439,0.257-1.05,0.327-1.576,0.306
			c-1.459-0.057-2.914-0.208-4.371-0.32c-0.774-0.059-1.117,0.378-1.229,1.077c-0.263-0.014-0.527-0.028-0.79-0.042
			c-0.613-1.074-1.645-0.928-2.605-0.823c-0.693,0.076-1.372,0.343-1.529-0.686c0.868-0.581,1.873-0.84,2.691-1.658
			c0.524-0.525,2.063-0.561,2.848-0.188c1.589,0.755,3.245-0.189,4.752,0.522c2.92-0.674,5.756,0.141,8.611,0.526
			c0.642,0.087,1.243,0.484,1.722,0.681c1.125-0.305,2.137-0.58,3.355-0.91c0.053,0.721,0.086,1.155,0.125,1.682
			c1.128,0.217,2.238,0.442,3.186-0.572c0.568-0.608,1.147-0.556,1.796-0.025c0.574,0.47,1.277,0.779,1.866,1.233
			c0.63,0.487,1.226,0.785,2.05,0.453C416.212,351.092,416.569,351.605,416.82,351.856z"/>
		<path style="fill:#F4CE30;" d="M316.822,330.898c3.369-0.374,6.737-0.754,10.107-1.115c0.743-0.08,1.496-0.148,2.241-0.126
			c1.853,0.055,3.65-0.156,5.456-0.622c1.432-0.37,2.946-0.441,4.428-0.601c4.047-0.435,8.098-0.823,12.143-1.272
			c4.503-0.499,9.001-1.045,13.601-1.582c0.089,0.48,0.148,0.799,0.206,1.119c-0.562,0.181-1.125,0.362-1.687,0.543
			c-0.825,0.09-1.651,0.18-2.476,0.27c-0.595-0.495-1.146-0.502-1.639,0.145c-0.822,0.099-1.643,0.199-2.465,0.298
			c-0.612-0.538-1.175-0.566-1.665,0.161c-0.814,0.092-1.628,0.183-2.442,0.275c-0.634-0.536-1.213-0.636-1.671,0.212
			c-0.543,0.056-1.087,0.112-1.63,0.167c-0.624-0.533-1.19-0.573-1.664,0.193c-0.543,0.072-1.086,0.143-1.629,0.215
			c-0.755-0.452-1.487-0.712-2.071,0.25c-0.543,0.057-1.086,0.113-1.629,0.17c-0.634-0.529-1.206-0.587-1.664,0.22
			c-0.543,0.063-1.086,0.125-1.629,0.188c-0.627-0.531-1.194-0.571-1.663,0.202c-0.543,0.069-1.086,0.138-1.629,0.206
			c-0.624-0.526-1.192-0.577-1.663,0.196c-0.679,0.075-1.358,0.151-2.037,0.226c-0.636-0.517-1.212-0.598-1.664,0.228
			c-0.544,0.056-1.088,0.112-1.632,0.169c-0.637-0.519-1.21-0.578-1.66,0.233c-0.542,0.064-1.084,0.128-1.626,0.192
			c-0.591-0.184-1.29-1.243-1.681,0.206c-0.527,0.044-1.054,0.089-1.581,0.134c-0.951-0.995-1.37-0.934-2.513,0.367
			c-0.258,0.02-0.517,0.039-0.775,0.059c-0.032-0.255-0.064-0.51-0.105-0.836c-0.577,0.182-1.096,0.346-1.733,0.547
			C316.976,331.636,316.899,331.267,316.822,330.898z"/>
		<path style="fill:#F4CE30;" d="M417.638,321.03c2.22-0.923,4.761-0.54,5.852,0.634c1.527,0.031,2.844,0.309,4.011,0.007
			c1.104-0.286,2.106-0.611,3.225-0.252c0.256,0.082,0.631,0.035,0.772,0.2c1.832,2.146,4.519,1.466,6.812,2.013
			c1.051,0.251,2.308-0.019,3.391-0.332c1.179-0.34,2.186,0.089,3.124,0.492c0.55,0.236,0.813,1.14,1.205,1.743
			c-1.921-0.205-3.846-0.374-5.759-0.636c-0.584-0.08-1.063-0.231-1.267,0.501c-0.249-0.015-0.497-0.03-0.746-0.045
			c-0.382-0.213-0.745-0.561-1.148-0.617c-2.289-0.317-4.585-0.589-6.883-0.823c-0.857-0.088-1.729-0.014-2.593-0.05
			c-1.196-0.051-2.394-0.104-3.581-0.238c-0.199-0.022-0.352-0.459-0.533-0.715c-1.238,1.13-1.985,1.349-3.319,0.459
			c-0.974-0.65-1.741-0.863-2.77,0.123C417.515,322.48,417.576,321.755,417.638,321.03z"/>
		<path style="fill:#F5D34B;" d="M355.929,350.209c0.164-0.114,0.321-0.313,0.494-0.328c2.016-0.176,4.031-0.384,6.052-0.467
			c4.257-0.176,8.516-0.283,12.775-0.419c0.014,0.481,0.027,0.963,0.041,1.445c-0.813,0.048-1.626,0.136-2.439,0.137
			c-7.997,0.015-15.961,0.398-23.808,2.09c-1.33,0.287-2.632,0.71-3.941,1.088c-0.419,0.121-0.767,0.334-0.512,0.874
			c-0.801,0.221-1.453,0.08-1.825-0.748c1.497-0.543,2.994-1.085,4.491-1.628c1.122-0.268,2.25-0.511,3.364-0.811
			c0.956-0.258,1.894-0.58,2.84-0.873c0.281-0.111,0.562-0.222,0.843-0.332C354.854,350.801,355.396,350.784,355.929,350.209z"/>
		<path style="fill:#F6DA65;" d="M417.638,321.03c-0.061,0.725-0.123,1.45-0.209,2.464c1.029-0.986,1.796-0.773,2.77-0.123
			c1.334,0.89,2.081,0.671,3.319-0.459c0.182,0.256,0.334,0.692,0.533,0.715c1.188,0.134,2.386,0.188,3.581,0.238
			c0.864,0.037,1.736-0.037,2.593,0.05c2.299,0.235,4.595,0.506,6.883,0.823c0.403,0.056,0.766,0.404,1.148,0.617
			c-2.509-0.116-5.018-0.251-7.529-0.341c-4.218-0.151-8.437-0.332-12.657-0.39c-4.21-0.058-8.422,0.028-12.633,0.032
			c-0.607,0.001-1.214-0.1-1.82-0.153c0.565-1.083,1.61-0.673,2.36-0.548c1.291,0.216,2.067-0.224,2.641-1.283
			c0.128-0.003,0.256-0.012,0.383-0.026c0.758,0.28,1.536,0.516,2.271,0.849c2.23,1.012,5.066-0.143,5.988-2.47
			C417.385,321.024,417.511,321.025,417.638,321.03z"/>
		<path style="fill:#F4CE30;" d="M408.618,322.674c-0.574,1.06-1.349,1.499-2.641,1.283c-0.75-0.125-1.794-0.535-2.36,0.548
			c-1.501,0.048-3.003,0.097-4.504,0.147c-1.405-0.46-2.802-0.722-4.151,0.174c-1.497,0.077-2.994,0.154-4.491,0.23
			c-0.988-0.498-1.958-0.652-2.879,0.148c-1.097,0.087-2.195,0.175-3.292,0.263c-0.572-0.114-1.14-0.279-1.717-0.327
			c-0.577-0.048-1.092-0.081-1.151-0.815c0.293-0.143,0.578-0.389,0.881-0.414c2.027-0.171,4.057-0.347,6.089-0.423
			c4.622-0.172,9.248-0.266,13.87-0.444c0.851-0.033,1.69-0.325,2.538-0.478c0.316-0.057,0.644-0.098,0.963-0.082
			C406.723,322.529,407.67,322.608,408.618,322.674z"/>
		<path style="fill:#F4CE30;" d="M365.79,326.664c0.213-0.376,0.342-0.867,0.66-1.099c0.363-0.263,0.887-0.377,1.353-0.413
			c2.237-0.174,4.48-0.279,6.717-0.453c1.27-0.099,2.534-0.281,4.081-0.458c-0.468-0.733-0.762-1.195-1.153-1.808
			c2.538-0.471,4.94-0.929,7.454-0.035c-1.782,0.246-3.564,0.492-5.51,0.76c0.195,0.562,0.302,0.87,0.409,1.177
			c-0.021,0.478-0.042,0.957-0.063,1.436c-0.4,0.031-0.8,0.062-1.2,0.093c-1.015-0.414-2.026-0.778-2.909,0.264
			c-0.811,0.055-1.622,0.11-2.434,0.165c-0.623-0.522-1.19-0.519-1.684,0.177c-0.812,0.075-1.625,0.15-2.437,0.224
			c-0.605-0.515-1.163-0.529-1.657,0.154c-0.527,0.054-1.054,0.108-1.581,0.162C365.831,326.894,365.816,326.778,365.79,326.664z"/>
		<path style="fill:#F4CD2C;" d="M311.471,333.286c-0.515-0.351-0.795-0.921-1.672-0.854c-1.244,0.094-2.49,0.145-3.813-0.12
			c-1.184-0.238-2.615-0.195-3.937-0.171c0.033-0.463,0.065-0.926,0.113-1.62c2.034-0.202,4.021-0.4,6.252-0.621
			c-0.162,0.723-0.252,1.128-0.351,1.569c0.663,0.328,1.176,0.303,1.362-0.54c0.254-1.149,1.268-1.101,2.078-1.243
			c0.892-0.157,1.748-0.081,2.132,1.053c0.095,0.281,0.749,0.373,1.146,0.552c-0.281,0.622-0.534,1.231-1.388,1.292
			c-0.245,0.017-0.464,0.394-0.695,0.605C312.289,333.22,311.88,333.253,311.471,333.286z"/>
		<path style="fill:#F6DA65;" d="M439.003,325.401c0.205-0.732,0.683-0.581,1.267-0.501c1.913,0.262,3.838,0.431,5.759,0.636
			c0.139,0.004,0.277,0.009,0.416,0.013c1.233,0.269,2.466,0.539,3.699,0.809c1.94,0.541,3.879,1.088,5.822,1.618
			c0.648,0.177,1.309,0.311,1.964,0.464c0.434,0.446,0.868,0.892,1.302,1.339c-0.457-0.058-0.944-0.033-1.367-0.185
			c-5.538-1.985-11.257-3.119-17.094-3.731C440.171,325.8,439.591,325.559,439.003,325.401z"/>
		<path style="fill:#F5D656;" d="M470.723,350.546c0.118-0.163,0.199-0.385,0.358-0.479c2.644-1.56,3.927-4.119,5.057-6.803
			c0.088-0.21,0.385-0.332,0.584-0.495c0.097,4.19-2.051,7.052-5.45,9.151c-0.574,0.355-1.228,0.581-1.845,0.865
			C469.125,351.614,470.457,351.388,470.723,350.546z"/>
		<path style="fill:#F9E793;" d="M470.723,350.546c-0.267,0.842-1.598,1.068-1.296,2.24c-0.336,0.127-0.671,0.253-1.007,0.379
			c-0.314-0.388-0.629-0.724-0.984-0.038l0.005-0.003c-0.414,0.138-0.827,0.277-1.241,0.415c0,0,0.043,0.02,0.043,0.02
			c-1.547,0.197-3.092,0.4-4.64,0.589c-1.198,0.147-2.41,0.517-3.566-0.182c3.88-0.347,7.51-1.637,11.141-2.931
			C469.687,350.853,470.208,350.708,470.723,350.546z"/>
		<path style="fill:#F5D34B;" d="M383.081,349.401c0.157,1.029,0.836,0.762,1.529,0.686c0.961-0.105,1.993-0.252,2.605,0.823
			c-2.333-0.121-4.665-0.241-6.998-0.361c-0.004-0.383-0.009-0.766-0.013-1.15C381.163,349.4,382.122,349.4,383.081,349.401z"/>
		<path style="fill:#F5D656;" d="M312.698,333.187c0.231-0.212,0.45-0.588,0.695-0.605c0.854-0.061,1.107-0.67,1.388-1.292
			c0.68-0.131,1.361-0.262,2.041-0.392c0.077,0.369,0.154,0.738,0.258,1.237c0.637-0.201,1.156-0.365,1.733-0.547
			c0.041,0.326,0.073,0.581,0.105,0.836C316.845,332.678,314.772,332.932,312.698,333.187z"/>
		<path style="fill:#F4CC2B;" d="M380.204,349.399c0.004,0.383,0.009,0.766,0.013,1.15c-0.41-0.013-0.821-0.025-1.231-0.037
			c-0.57-0.921-0.668-0.923-1.273-0.024c-0.808-0.016-1.615-0.031-2.423-0.047c-0.014-0.482-0.027-0.964-0.041-1.445
			c1.221-0.004,2.443-0.044,3.662,0.007C379.347,349.021,379.773,349.26,380.204,349.399z"/>
		<path style="fill:#F5CF35;" d="M459.231,329.779c-0.434-0.446-0.868-0.893-1.302-1.339c1.573,0.569,3.156,1.114,4.716,1.716
			c0.624,0.241,1.226,0.567,1.787,0.933c0.484,0.315,0.612,0.735-0.015,1.09c-0.765-0.361-1.53-0.723-2.295-1.084
			c-0.368-0.81-1.026-1.039-1.855-0.923C459.921,330.042,459.576,329.91,459.231,329.779z"/>
		<path style="fill:#F6DA65;" d="M379.737,325.772c0.021-0.479,0.042-0.957,0.063-1.436c0.544-0.004,1.089-0.008,1.633-0.012
			c0.059,0.734,0.574,0.768,1.151,0.816c0.577,0.048,1.145,0.213,1.717,0.327C382.779,325.568,381.258,325.67,379.737,325.772z"/>
		<path style="fill:#F6DA65;" d="M394.963,324.825c1.349-0.896,2.746-0.634,4.151-0.174
			C397.73,324.709,396.346,324.767,394.963,324.825z"/>
		<path style="fill:#F5D656;" d="M240.777,323.456c1.217,0.37,1.976,1.22,2.462,2.354
			C241.958,325.507,241.204,324.653,240.777,323.456z"/>
		<path style="fill:#F5D656;" d="M319.694,332.364c1.143-1.3,1.562-1.361,2.513-0.367
			C321.37,332.12,320.532,332.242,319.694,332.364z"/>
		<path style="fill:#F6DA65;" d="M387.592,325.204c0.921-0.801,1.891-0.646,2.879-0.148
			C389.512,325.105,388.552,325.154,387.592,325.204z"/>
		<path style="fill:#F6DA65;" d="M375.627,326.129c0.883-1.042,1.894-0.678,2.909-0.264
			C377.567,325.952,376.597,326.04,375.627,326.129z"/>
		<path style="fill:#F5D656;" d="M243.52,326c1.23,0.059,1.824,0.845,2.178,1.905C244.612,327.682,243.958,326.964,243.52,326z"/>
		<path style="fill:#F5D656;" d="M343.965,329.428c0.584-0.962,1.316-0.702,2.071-0.25
			C345.346,329.261,344.656,329.345,343.965,329.428z"/>
		<path style="fill:#F5D656;" d="M365.79,326.664c0.026,0.115,0.041,0.231,0.046,0.348c-0.839,0.076-1.678,0.153-2.518,0.23
			c0.562-0.181,1.124-0.361,1.687-0.543C365.266,326.687,365.528,326.675,365.79,326.664z"/>
		<path style="fill:#F5D656;" d="M323.788,331.864c0.391-1.45,1.09-0.39,1.681-0.206
			C324.909,331.726,324.348,331.795,323.788,331.864z"/>
		<path style="fill:#F5D656;" d="M327.095,331.465c0.451-0.811,1.023-0.752,1.66-0.233
			C328.202,331.31,327.649,331.387,327.095,331.465z"/>
		<path style="fill:#F5D656;" d="M330.387,331.063c0.452-0.825,1.028-0.745,1.664-0.228
			C331.497,330.911,330.942,330.987,330.387,331.063z"/>
		<path style="fill:#F6DA65;" d="M371.509,326.471c0.494-0.696,1.062-0.699,1.684-0.177
			C372.632,326.353,372.071,326.412,371.509,326.471z"/>
		<path style="fill:#F5D656;" d="M367.416,326.85c0.493-0.683,1.052-0.67,1.657-0.154
			C368.52,326.747,367.968,326.798,367.416,326.85z"/>
		<path style="fill:#F5D656;" d="M359.202,327.657c0.493-0.647,1.045-0.64,1.639-0.145
			C360.295,327.56,359.749,327.608,359.202,327.657z"/>
		<path style="fill:#F5D656;" d="M355.072,328.116c0.49-0.728,1.053-0.699,1.665-0.161
			C356.182,328.009,355.627,328.063,355.072,328.116z"/>
		<path style="fill:#F5D656;" d="M350.959,328.603c0.459-0.848,1.037-0.747,1.671-0.212
			C352.073,328.462,351.516,328.533,350.959,328.603z"/>
		<path style="fill:#F5D656;" d="M347.666,328.963c0.473-0.766,1.04-0.725,1.664-0.193
			C348.775,328.835,348.22,328.899,347.666,328.963z"/>
		<path style="fill:#F5D656;" d="M340.672,329.818c0.458-0.807,1.03-0.748,1.664-0.22
			C341.782,329.671,341.227,329.744,340.672,329.818z"/>
		<path style="fill:#F5D656;" d="M337.38,330.207c0.469-0.773,1.036-0.733,1.663-0.202
			C338.489,330.072,337.935,330.14,337.38,330.207z"/>
		<path style="fill:#F5D656;" d="M334.089,330.609c0.471-0.773,1.039-0.722,1.663-0.196
			C335.197,330.479,334.643,330.544,334.089,330.609z"/>
		<path style="fill:#F6DA65;" d="M460.266,330.173c0.83-0.116,1.487,0.113,1.855,0.923
			C461.503,330.788,460.885,330.48,460.266,330.173z"/>
		<path style="fill:#F5D34B;" d="M377.713,350.487c0.604-0.898,0.703-0.896,1.273,0.024
			C378.562,350.503,378.137,350.495,377.713,350.487z"/>
		<path style="fill:#F5D34B;" d="M360.036,356.416c-0.368,0.5-0.635,0.318-0.861-0.129
			C359.462,356.331,359.749,356.373,360.036,356.416z"/>
		<path style="fill:#F5D656;" d="M476.572,338.342c-0.41-0.229-0.625-0.491-0.144-0.868
			C476.476,337.763,476.524,338.053,476.572,338.342z"/>
		<path style="fill:#F6DA65;" d="M577.289,289.9c-0.038,0.214-0.075,0.429-0.112,0.64
			C577.214,290.325,577.251,290.112,577.289,289.9z"/>
		<path style="fill:#F5D34B;" d="M466.201,353.539c0.414-0.138,0.827-0.277,1.241-0.415
			C467.213,353.813,466.747,353.796,466.201,353.539z"/>
		<path style="fill:#F5D34B;" d="M467.436,353.127c0.355-0.685,0.67-0.35,0.984,0.038
			C468.093,353.152,467.765,353.14,467.436,353.127z"/>
		<path style="fill:#F5CF35;" d="M408.838,314.776c-2.671,0.019-5.344,0.004-8.014,0.073c-1.287,0.033-2.571,0.225-3.856,0.341
			c-0.272,0.025-0.567,0.109-0.816,0.039c-1.343-0.382-2.659-0.231-4.012-0.002c-1.403,0.238-2.835,0.329-4.259,0.411
			c-1.137,0.066-2.284-0.036-3.42,0.04c-2.375,0.16-4.747,0.385-7.119,0.593c-0.541,0.048-1.078,0.195-1.617,0.197
			c-4.233,0.02-8.426,0.346-12.596,1.164c-1.991,0.391-4.071,0.308-6.104,0.506c-2.707,0.263-5.41,0.575-8.112,0.893
			c-1.888,0.222-3.77,0.495-5.656,0.737c-4.177,0.535-8.344,1.205-12.537,1.554c-3.868,0.322-7.627,1.307-11.544,1.423
			c-3.643,0.107-7.26,0.975-10.896,1.456c-1.753,0.232-3.525,0.315-5.281,0.525c-0.72,0.086-1.423,0.323-2.132,0.501
			c-0.325,0.082-0.65,0.285-0.964,0.264c-2.776-0.186-5.532-0.077-8.276,0.402c-0.898,0.157-1.417-0.238-1.512-1.357
			c0.952,0.053,1.799,0.168,2.639,0.128c0.877-0.043,1.75-0.217,2.618-0.369c0.655-0.114,1.304-0.415,1.951-0.4
			c1.364,0.031,2.607-0.839,4.002-0.467c0.258,0.069,0.548,0.064,0.818,0.04c2.708-0.242,5.415-0.489,8.121-0.747
			c1.489-0.142,2.983-0.258,4.463-0.473c3.491-0.507,6.969-1.111,10.464-1.586c1.886-0.256,3.799-0.309,5.697-0.488
			c0.946-0.089,1.887-0.234,2.825-0.389c3.753-0.62,7.559-0.742,11.312-1.533c3.304-0.697,6.762-0.665,10.152-0.952
			c0.408-0.035,0.837,0.013,1.223-0.096c3.246-0.919,6.59-0.916,9.915-1.166c3.385-0.255,6.751-0.754,10.128-1.116
			c1.827-0.196,3.658-0.417,5.492-0.478c5.53-0.184,11.064-0.265,16.594-0.444c3.135-0.101,6.266-0.316,9.399-0.48
			C408.233,313.938,408.536,314.357,408.838,314.776z"/>
		<path style="fill:#030303;" d="M580.355,277.335c-0.166,1.102,0.02,2.304-1.02,3.379
			C578.814,279.12,579.946,278.322,580.355,277.335z"/>
		<polygon style="fill:#030303;" points="580.747,276.282 580.83,276.118 580.727,276.099 		"/>
		<path style="fill:#F4CC2B;" d="M452.201,353.922c-1.49,0.136-2.986,0.435-4.467,0.374c-2.751-0.113-5.504-0.351-8.234-0.71
			c-1.214-0.16-2.373-0.741-3.663-1.166c-0.514,0.259-1.146,0.665-1.837,0.892c-0.405,0.133-1.15,0.155-1.315-0.078
			c-0.592-0.83-1.545-0.408-2.061-0.685c-1.865-1.002-3.559,0.123-5.316,0.053c-0.711-0.029-1.18-0.098-1.495-0.73
			c0.256-0.463,0.431-1.002,0.783-1.374c0.87-0.919,1.05-0.865,1.761,0.041c1.409-0.079,2.629-0.148,4.227-0.238
			c0.011-0.013,0.295-0.353,0.525-0.629c0.608,0.19,1.223,0.611,1.723,0.501c2.637-0.581,4.969,0.68,7.441,1.062
			c1.082,0.167,2.256-0.162,3.147,0.847c0.136,0.154,0.751-0.121,1.146-0.191c0.732-0.13,1.494-0.453,2.192-0.35
			c3.468,0.51,6.914,0.51,10.374-0.051c0.59-0.096,1.221,0.061,1.832,0.1c-0.051,0.2-0.1,0.402-0.15,0.604
			c-0.933,0.301-1.848,0.716-2.804,0.872c-0.926,0.151-1.905-0.034-2.842,0.077C452.82,353.184,452.522,353.65,452.201,353.922z"/>
		<path style="fill:#F4CD2C;" d="M301.64,332.544c-1.15,0.972-2.34,1.783-3.984,1.345c-0.372-0.099-0.883-0.138-1.184,0.041
			c-1.458,0.863-3.044,0.636-4.6,0.654c-2.18,0.025-4.36,0.007-6.54,0.015c-0.34,0.001-0.697-0.015-1.018,0.075
			c-1.701,0.478-3.385,0.66-5.186,0.551c-2.518-0.153-5.061,0.149-7.593,0.171c-3.899,0.034-7.682-0.824-11.468-1.628
			c0.38-0.869,1.147-0.877,1.911-0.825c1.76,0.12,3.523,0.226,5.276,0.417c1.976,0.215,3.95-0.47,5.97,0.31
			c1.028,0.397,2.368-0.007,3.566-0.06c0.922-0.041,1.843-0.098,3.115-0.167c0.169-0.128,0.642-0.753,1.179-0.814
			c0.479-0.054,1.003,0.581,1.553,0.792c0.487,0.187,1.037,0.286,1.559,0.287c1.32,0.001,2.64-0.062,3.958-0.131
			c0.315-0.017,0.627-0.15,0.936-0.244c0.381-0.116,0.857-0.458,1.121-0.336c1.913,0.89,3.195-0.416,4.705-1.345
			c0.301,0.393,0.57,0.745,0.84,1.097c0.132-0.007,0.345,0.035,0.381-0.027c0.65-1.105,1.985-0.522,2.837-1.143
			c0.099-0.072,0.521,0.111,0.635,0.281C300.123,332.627,300.901,332.507,301.64,332.544z"/>
		<path style="fill:#F4CE30;" d="M364.569,340.751c0.574-0.136,1.147-0.384,1.722-0.39c3.631-0.036,7.264-0.071,10.894-0.002
			c3.889,0.074,7.777,0.253,11.664,0.403c3.203,0.123,6.409,0.217,9.607,0.427c1.826,0.12,3.639,0.45,5.458,0.683
			c0.338,0.043,0.677,0.097,1.017,0.111c3.614,0.144,7.23,0.242,10.841,0.437c1.831,0.099,3.651,0.381,5.478,0.555
			c1.026,0.097,2.056,0.142,3.371,0.229c-0.877,1.137-1.725,0.81-2.489,0.755c-1.082-0.077-2.159-0.237-3.241-0.319
			c-3.664-0.277-7.33-0.536-10.995-0.797c-0.409-0.029-0.821-0.029-1.232-0.028c-4.892,0.003-9.771-0.214-14.629-0.811
			c-0.068-0.008-0.137-0.007-0.205-0.009c-4.299-0.139-8.599-0.26-12.897-0.426c-2.155-0.083-4.306-0.313-6.461-0.357
			c-1.354-0.028-2.711,0.192-4.068,0.251c-1.297,0.056-2.596,0.048-3.894,0.068C364.53,341.27,364.549,341.01,364.569,340.751z"/>
		<path style="fill:#F4CE30;" d="M449.347,345.613c-0.764,0.161-1.532,0.474-2.293,0.456c-2.658-0.064-5.316-0.195-7.967-0.39
			c-2.643-0.194-5.277-0.521-7.919-0.736c-1.158-0.094-2.328-0.099-3.491-0.064c-1.075,0.032-1.829-0.371-2.431-1.589
			c1.245,0,2.356-0.045,3.462,0.013c1.084,0.057,2.161,0.232,3.243,0.33c1.626,0.147,3.279,0.14,4.877,0.434
			c3.471,0.639,6.961,0.254,10.438,0.41c0.701,0.031,1.391,0.315,2.086,0.481C449.35,345.177,449.349,345.395,449.347,345.613z"/>
		<path style="fill:#F4CE30;" d="M417.259,321.027c-0.922,2.327-3.758,3.482-5.988,2.47c-0.734-0.333-1.512-0.569-2.271-0.849
			c0.034-0.596,0.068-1.191,0.104-1.843c1.496-0.404,2.765-0.44,3.689,1.207C414.159,320.717,415.603,320.212,417.259,321.027z"/>
		<path style="fill:#F9EBA6;" d="M351.829,342.417c-5.198,1.306-10.396,2.611-15.538,3.903c1.074-1.131,3.257-2.209,5.512-2.667
			c3.318-0.674,6.638-1.334,9.958-2.001C351.784,341.906,351.806,342.161,351.829,342.417z"/>
		<path style="fill:#F9EBA6;" d="M451.408,344.883c2.865-0.46,5.73-0.92,8.595-1.38c0.729-0.114,1.703,0.173,1.751-1.063
			c0.533-0.083,1.065-0.167,1.687-0.265c0.291,1.078-0.504,1.408-1.211,1.759c-2.308,1.145-4.798,1.529-7.333,1.666
			c-1.159,0.063-2.323,0.022-3.485,0.028C451.411,345.38,451.409,345.132,451.408,344.883z"/>
		<path style="fill:#F6DA65;" d="M351.829,342.417c-0.023-0.255-0.045-0.51-0.068-0.765c1.62-0.167,3.238-0.384,4.862-0.491
			c2.646-0.174,5.297-0.277,7.946-0.409c-0.02,0.26-0.039,0.52-0.059,0.779c-3.587-0.172-7.127,0.216-10.653,0.835
			C353.198,342.48,352.506,342.404,351.829,342.417z"/>
		<path style="fill:#F4CC2B;" d="M422.589,351.871c-0.369,1.309-1.537,1.012-2.092,0.613c-0.937-0.673-1.875-0.574-2.856-0.621
			c0.064-0.189,0.074-0.485,0.2-0.548c0.671-0.332,1.371-0.606,2.234-0.973C420.788,350.775,421.688,351.323,422.589,351.871z"/>
		<path style="fill:#F9E793;" d="M460.736,351.798c2.358-0.656,4.715-1.313,7.215-2.009
			C466.772,351.179,463.203,352.233,460.736,351.798z"/>
		<path style="fill:#F4CE30;" d="M450.144,326.358c-1.233-0.27-2.466-0.539-3.699-0.809c0.382-0.82,0.779-1.712,1.899-1.452
			c0.568,0.132,1.168,0.477,1.555,0.906C450.161,325.293,450.074,325.896,450.144,326.358z"/>
		<path style="fill:#F5D34B;" d="M346.055,350.203c0.27-0.191,0.517-0.491,0.815-0.556c1.888-0.417,3.788-0.782,5.683-1.164
			c0.039,0.166,0.078,0.332,0.117,0.498c-2.219,0.537-4.438,1.073-6.657,1.61C346.028,350.461,346.042,350.332,346.055,350.203z"/>
		<path style="fill:#F6DA65;" d="M466.693,346.636c-1.632,0.522-3.091,1.597-5.266,1.466c0.496-0.344,0.746-0.571,1.039-0.712
			c1.017-0.49,2.03-1.002,3.087-1.39c0.341-0.126,0.813,0.104,1.225,0.171C466.749,346.326,466.721,346.481,466.693,346.636z"/>
		<path style="fill:#F9E793;" d="M340.114,352.784c1.214-1.208,2.689-1.848,4.414-1.939
			C343.215,351.836,341.74,352.474,340.114,352.784z"/>
		<path style="fill:#F9EBA6;" d="M347.255,352.253c-1.497,0.543-2.994,1.085-4.491,1.628c-0.326,0-0.651,0-1.039,0
			c1.057-1.188,2.124-1.604,5.622-2.24C347.316,351.846,347.286,352.05,347.255,352.253z"/>
		<path style="fill:#F6DA65;" d="M347.255,352.253c0.03-0.203,0.06-0.407,0.092-0.612c2.038-0.358,4.075-0.715,6.112-1.072
			c-0.946,0.293-1.884,0.615-2.84,0.872C349.506,351.742,348.377,351.985,347.255,352.253z"/>
		<path style="fill:#F6DA65;" d="M342.381,348.201c-1.244,0.567-2.487,1.134-3.731,1.701c-0.06-0.141-0.12-0.281-0.181-0.422
			c1.145-0.912,2.355-1.68,3.902-1.688C342.374,347.929,342.378,348.065,342.381,348.201z"/>
		<path style="fill:#F4CD2C;" d="M255.957,332.508c-1.81,0.021-1.81,0.021-2.071-1.211c0.443,0.14,0.919,0.221,1.32,0.44
			C255.507,331.901,255.71,332.244,255.957,332.508z"/>
		<path style="fill:#F4CE30;" d="M461.755,342.44c-0.048,1.236-1.022,0.949-1.751,1.063
			C460.275,342.634,460.98,342.479,461.755,342.44z"/>
		<path style="fill:#F4CE30;" d="M451.408,344.883c0.001,0.249,0.003,0.497,0.004,0.746c-0.442,0.6-0.874,0.613-1.295-0.022
			c-0.02-0.228-0.04-0.457-0.06-0.686C450.508,344.908,450.958,344.896,451.408,344.883z"/>
		<path style="fill:#F4CD2C;" d="M253.888,331.3c-0.659-0.057-1.5,0.262-1.668-0.808C252.88,330.544,253.75,330.166,253.888,331.3z"
			/>
		<path style="fill:#F4CD2C;" d="M251.426,330.468c-0.414-0.266-0.827-0.533-1.241-0.799
			C251.278,328.88,251.232,329.86,251.426,330.468z"/>
		<path style="fill:#F5CF35;" d="M288.346,325.682c-0.219,0.063-0.446,0.189-0.655,0.165c-0.13-0.015-0.358-0.341-0.328-0.386
			c0.131-0.197,0.325-0.45,0.523-0.477c0.228-0.03,0.486,0.156,0.731,0.249C288.526,325.383,288.436,325.533,288.346,325.682z"/>
		<path style="fill:#F4CD2C;" d="M258.009,333.347c-0.412-0.273-0.825-0.546-1.237-0.819
			C257.37,332.52,257.97,332.509,258.009,333.347z"/>
		<path style="fill:#F9E793;" d="M458.814,352.193c0.049-0.202,0.099-0.404,0.15-0.604c0.15,0.092,0.298,0.182,0.446,0.272
			C459.211,351.972,459.013,352.083,458.814,352.193z"/>
		<path style="fill:#F4CE30;" d="M375.917,322.539c-0.049,0.115-0.099,0.23-0.148,0.345c-0.115-0.05-0.294-0.074-0.327-0.156
			c-0.033-0.083,0.081-0.223,0.13-0.338C375.687,322.439,375.802,322.489,375.917,322.539z"/>
		<path style="fill:#F6DA65;" d="M355.929,350.209c-0.533,0.575-1.075,0.592-1.626,0.027
			C354.845,350.227,355.387,350.218,355.929,350.209z"/>
		<path style="fill:#F9EBA6;" d="M450.058,344.921c0.02,0.229,0.04,0.457,0.06,0.686c-0.257,0.002-0.514,0.005-0.771,0.007
			c0.002-0.219,0.003-0.437,0.005-0.655C449.587,344.947,449.822,344.934,450.058,344.921z"/>
		<path style="fill:#F9E793;" d="M346.055,350.203c-0.013,0.129-0.027,0.258-0.042,0.387c-0.162-0.042-0.324-0.083-0.486-0.125
			C345.703,350.378,345.879,350.29,346.055,350.203z"/>
	</g>
</g>
</svg>
